<svg xmlns="http://www.w3.org/2000/svg" height="20" viewBox="0 -960 960 960" width="20"><path fill="#fff" d="M481-438.692 308.154-264.846q-10.615 10.615-20.769 10-10.154-.615-21.539-12-10.385-11.385-9.885-20.654t10.885-20.654L437.692-480 264.846-654.846q-9.615-10.615-9.5-20.269.115-9.654 10.5-21.039 11.385-11.385 21.654-11.885t21.654 10.885L481-523.308l170.846-173.846q10.615-10.615 21.269-10.5 10.654.115 22.039 11.5 10.385 11.385 9.885 20.654t-10.885 20.654L522.308-480l171.846 172.846q9.615 9.615 10.5 19.269.885 9.654-9.5 21.039-11.385 11.385-21.654 11.885t-21.654-10.885L481-438.692Z"/></svg>